<svg width="1024" height="500" viewBox="0 0 1024 500" fill="none" xmlns="http://www.w3.org/2000/svg">
  <defs>
    <linearGradient id="bg" x1="0" y1="0" x2="1024" y2="500" gradientUnits="userSpaceOnUse">
      <stop stop-color="#050914"/>
      <stop offset="0.58" stop-color="#0B1220"/>
      <stop offset="1" stop-color="#123B52"/>
    </linearGradient>
    <linearGradient id="accent" x1="0" y1="0" x2="1" y2="1">
      <stop stop-color="#64D2FF"/>
      <stop offset="1" stop-color="#30D158"/>
    </linearGradient>
    <filter id="shadow" x="-20%" y="-20%" width="140%" height="140%">
      <feDropShadow dx="0" dy="22" stdDeviation="24" flood-color="#000000" flood-opacity="0.35"/>
    </filter>
  </defs>
  <rect width="1024" height="500" rx="0" fill="url(#bg)"/>
  <circle cx="840" cy="420" r="220" fill="#64D2FF" opacity="0.11"/>
  <circle cx="160" cy="100" r="180" fill="#30D158" opacity="0.10"/>
  <circle cx="102" cy="390" r="150" fill="#BF5AF2" opacity="0.12"/>

  <g transform="translate(70 73)">
    <circle cx="76" cy="76" r="72" fill="#168DFF"/>
    <path d="M76 4a72 72 0 0 1 60 112L76 76V4Z" fill="#0A6FD8" opacity="0.55"/>
    <rect x="37" y="43" width="78" height="68" rx="8" fill="#FFFFFF"/>
    <path d="M54 55h44v16H82v24H66V71H54V55Z" fill="#168DFF"/>
    <path d="M64 94h37v15H64z" fill="#168DFF"/>
    <circle cx="50" cy="124" r="6" fill="#D9F4FF"/>
    <circle cx="76" cy="124" r="6" fill="#D9F4FF"/>
    <circle cx="102" cy="124" r="6" fill="#D9F4FF"/>
  </g>

  <g transform="translate(230 78)">
    <text x="0" y="82" font-family="Arial, Helvetica, sans-serif" font-size="86" font-weight="900" fill="#F8FAFC">বাংলু</text>
    <text x="2" y="134" font-family="Arial, Helvetica, sans-serif" font-size="34" font-weight="700" fill="#64D2FF">Bengali Phonetic Keyboard</text>
    <text x="2" y="188" font-family="Arial, Helvetica, sans-serif" font-size="28" font-weight="600" fill="#CBD5E1">Lowercase typing + Bengali voice + smart suggestions</text>
  </g>

  <g transform="translate(570 222)" filter="url(#shadow)">
    <rect x="0" y="0" width="382" height="210" rx="34" fill="#182235" stroke="#27364F" stroke-width="2"/>
    <rect x="28" y="28" width="326" height="48" rx="18" fill="#101A2A" stroke="#2D4562"/>
    <text x="52" y="62" font-family="Arial, Helvetica, sans-serif" font-size="26" font-weight="800" fill="#F8FAFC">ami bangla likhi</text>
    <text x="176" y="120" text-anchor="middle" font-family="Arial, Helvetica, sans-serif" font-size="28" font-weight="900" fill="#64D2FF">↓</text>
    <rect x="28" y="138" width="326" height="48" rx="18" fill="#101A2A" stroke="#2D4562"/>
    <text x="52" y="172" font-family="Arial, Helvetica, sans-serif" font-size="27" font-weight="900" fill="#30D158">আমি বাংলা লিখি</text>
  </g>
</svg>
